<svg width="529" height="345" viewBox="0 0 529 345" fill="none" xmlns="http://www.w3.org/2000/svg">
<path d="M399.201 91.75C438.421 91.75 469.859 103.687 493.516 127.561C517.172 151.434 529 181.785 529 218.609C529 255.434 517.172 285.705 493.516 309.423C469.859 333.141 438.421 345 399.201 345C359.981 345 328.388 333.141 304.42 309.423C280.453 285.705 268.469 255.434 268.469 218.609C268.469 181.785 280.452 151.434 304.42 127.561C328.388 103.687 359.982 91.75 399.201 91.75ZM126.997 90.8145C162.17 90.8145 191.43 101.581 214.775 123.114C243.412 149.641 257.263 188.495 256.329 239.675H86.377C91.9798 269.322 107.544 284.146 133.067 284.146C148.631 284.145 159.68 278.215 166.217 266.356H251.66C246.369 288.826 231.272 308.019 206.371 323.935C185.516 337.354 160.147 344.063 130.266 344.063C91.6684 344.063 60.3078 332.205 36.1846 308.487C12.0614 284.77 0 254.498 0 217.673C3.29573e-05 181.16 11.8283 150.889 35.4844 126.859C59.1407 102.83 89.645 90.8145 126.997 90.8145ZM128.865 150.265C105.52 150.265 91.3572 164.464 86.377 192.863H168.552C166.684 179.444 162.249 168.989 155.245 161.499C148.242 154.009 139.448 150.265 128.865 150.265ZM158.28 72.5576H91.9795L119.06 0H220.378L158.28 72.5576Z" fill="black"/>
</svg>
