<svg width="1024" height="1024" viewBox="0 0 1024 1024" fill="none" xmlns="http://www.w3.org/2000/svg">
<rect width="1024" height="1024" rx="188" fill="black"/>
<path d="M647.201 385.75C686.421 385.75 717.859 397.687 741.516 421.561C765.172 445.434 777 475.785 777 512.609C777 549.434 765.172 579.705 741.516 603.423C717.859 627.141 686.421 639 647.201 639C607.981 639 576.388 627.141 552.42 603.423C528.453 579.705 516.469 549.434 516.469 512.609C516.469 475.785 528.452 445.434 552.42 421.561C576.388 397.687 607.982 385.75 647.201 385.75ZM374.997 384.814C410.17 384.814 439.43 395.581 462.775 417.114C491.412 443.641 505.263 482.495 504.329 533.675H334.377C339.98 563.322 355.544 578.146 381.067 578.146C396.631 578.145 407.68 572.215 414.217 560.356H499.66C494.369 582.826 479.272 602.019 454.371 617.935C433.516 631.354 408.147 638.063 378.266 638.063C339.668 638.063 308.308 626.205 284.185 602.487C260.061 578.77 248 548.498 248 511.673C248 475.16 259.828 444.889 283.484 420.859C307.141 396.83 337.645 384.815 374.997 384.814ZM376.865 444.265C353.52 444.265 339.357 458.464 334.377 486.863H416.552C414.684 473.444 410.249 462.989 403.245 455.499C396.242 448.009 387.448 444.265 376.865 444.265ZM406.28 366.558H339.979L367.06 294H468.378L406.28 366.558Z" fill="white"/>
</svg>
