<svg width="1026" height="1026" viewBox="0 0 1026 1026" fill="none" xmlns="http://www.w3.org/2000/svg">
<rect x="0.511993" y="0.511719" width="1024" height="1024" rx="188" fill="white"/>
<path d="M647.713 386.262C686.933 386.262 718.371 398.199 742.028 422.072C765.684 445.946 777.512 476.296 777.512 513.121C777.512 549.946 765.684 580.217 742.028 603.935C718.371 627.652 686.933 639.512 647.713 639.512C608.493 639.512 576.9 627.652 552.932 603.935C528.965 580.217 516.981 549.946 516.981 513.121C516.981 476.296 528.964 445.946 552.932 422.072C576.9 398.199 608.494 386.262 647.713 386.262ZM375.509 385.326C410.682 385.326 439.942 396.093 463.287 417.626C491.924 444.152 505.775 483.006 504.841 534.187H334.889C340.492 563.833 356.056 578.657 381.579 578.657C397.143 578.657 408.192 572.727 414.729 560.868H500.172C494.881 583.338 479.784 602.53 454.883 618.446C434.028 631.866 408.659 638.575 378.778 638.575C340.18 638.575 308.82 626.717 284.697 602.999C260.573 579.281 248.512 549.009 248.512 512.185C248.512 475.672 260.34 445.401 283.996 421.371C307.653 397.341 338.157 385.326 375.509 385.326ZM377.377 444.776C354.032 444.776 339.869 458.976 334.889 487.375H417.064C415.196 473.956 410.761 463.501 403.757 456.011C396.754 448.521 387.96 444.776 377.377 444.776ZM406.792 367.069H340.491L367.572 294.512H468.89L406.792 367.069Z" fill="black"/>
<g opacity="0.06">
<path d="M1024.77 1024.77V1025.02H1025.02V1024.77H1024.77ZM0.255997 1024.77H-3.30806e-06V1025.02H0.255997V1024.77ZM0.255997 0.255859V-0.000140637H-3.30806e-06V0.255859H0.255997ZM1024.77 0.255859H1025.02V-0.000140637H1024.77V0.255859ZM0.767715 1024.26H0.511715V1024.51H0.767715V1024.26ZM148.735 1024.26V1024.51H148.991V1024.26H148.735ZM148.735 876.287H148.991V876.031H148.735V876.287ZM0.767715 876.287V876.031H0.511715V876.287H0.767715ZM149.247 1024.26H148.991V1024.51H149.247V1024.26ZM240.896 1024.26V1024.51H241.152V1024.26H240.896ZM240.896 876.287H241.152V876.031H240.896V876.287ZM149.247 876.287V876.031H148.991V876.287H149.247ZM241.407 1024.26H241.151V1024.51H241.407V1024.26ZM389.376 1024.26V1024.51H389.632V1024.26H389.376ZM389.376 876.287H389.632V876.031H389.376V876.287ZM241.407 876.287V876.031H241.151V876.287H241.407ZM389.888 1024.26H389.632V1024.51H389.888V1024.26ZM512.256 1024.26V1024.51H512.512V1024.26H512.256ZM512.256 876.287H512.512V876.031H512.256V876.287ZM389.888 876.287V876.031H389.632V876.287H389.888ZM512.768 1024.26H512.512V1024.51H512.768V1024.26ZM635.136 1024.26V1024.51H635.392V1024.26H635.136ZM635.136 876.287H635.392V876.031H635.136V876.287ZM512.768 876.287V876.031H512.512V876.287H512.768ZM635.648 1024.26H635.392V1024.51H635.648V1024.26ZM783.616 1024.26V1024.51H783.872V1024.26H783.616ZM783.616 876.287H783.872V876.031H783.616V876.287ZM635.648 876.287V876.031H635.392V876.287H635.648ZM784.128 1024.26H783.872V1024.51H784.128V1024.26ZM875.776 1024.26V1024.51H876.032V1024.26H875.776ZM875.776 876.287H876.032V876.031H875.776V876.287ZM784.128 876.287V876.031H783.872V876.287H784.128ZM876.287 1024.26H876.031V1024.51H876.287V1024.26ZM1024.26 1024.26V1024.51H1024.51V1024.26H1024.26ZM1024.26 876.287H1024.51V876.031H1024.26V876.287ZM876.287 876.287V876.031H876.031V876.287H876.287ZM0.767715 875.775H0.511715V876.031H0.767715V875.775ZM148.735 875.775V876.031H148.991V875.775H148.735ZM148.735 784.128H148.991V783.872H148.735V784.128ZM0.767715 784.128V783.872H0.511715V784.128H0.767715ZM149.247 875.775H148.991V876.031H149.247V875.775ZM240.896 875.775V876.031H241.152V875.775H240.896ZM240.896 784.128H241.152V783.872H240.896V784.128ZM149.247 784.128V783.872H148.991V784.128H149.247ZM241.407 875.775H241.151V876.031H241.407V875.775ZM389.376 875.775V876.031H389.632V875.775H389.376ZM389.376 784.128H389.632V783.872H389.376V784.128ZM241.407 784.128V783.872H241.151V784.128H241.407ZM389.888 875.775H389.632V876.031H389.888V875.775ZM512.256 875.775V876.031H512.512V875.775H512.256ZM512.256 784.128H512.512V783.872H512.256V784.128ZM389.888 784.128V783.872H389.632V784.128H389.888ZM512.768 875.775H512.512V876.031H512.768V875.775ZM635.136 875.775V876.031H635.392V875.775H635.136ZM635.136 784.128H635.392V783.872H635.136V784.128ZM512.768 784.128V783.872H512.512V784.128H512.768ZM635.648 875.775H635.392V876.031H635.648V875.775ZM783.616 875.775V876.031H783.872V875.775H783.616ZM783.616 784.128H783.872V783.872H783.616V784.128ZM635.648 784.128V783.872H635.392V784.128H635.648ZM784.128 875.775H783.872V876.031H784.128V875.775ZM875.776 875.775V876.031H876.032V875.775H875.776ZM875.776 784.128H876.032V783.872H875.776V784.128ZM784.128 784.128V783.872H783.872V784.128H784.128ZM876.287 875.775H876.031V876.031H876.287V875.775ZM1024.26 875.775V876.031H1024.51V875.775H1024.26ZM1024.26 784.128H1024.51V783.872H1024.26V784.128ZM876.287 784.128V783.872H876.031V784.128H876.287ZM0.767715 783.616H0.511715V783.872H0.767715V783.616ZM148.735 783.616V783.872H148.991V783.616H148.735ZM148.735 635.647H148.991V635.391H148.735V635.647ZM0.767715 635.647V635.391H0.511715V635.647H0.767715ZM149.247 783.616H148.991V783.872H149.247V783.616ZM240.896 783.616V783.872H241.152V783.616H240.896ZM240.896 635.647H241.152V635.391H240.896V635.647ZM149.247 635.647V635.391H148.991V635.647H149.247ZM241.407 783.616H241.151V783.872H241.407V783.616ZM389.376 783.616V783.872H389.632V783.616H389.376ZM389.376 635.647H389.632V635.391H389.376V635.647ZM241.407 635.647V635.391H241.151V635.647H241.407ZM389.888 783.616H389.632V783.872H389.888V783.616ZM512.256 783.616V783.872H512.512V783.616H512.256ZM512.256 635.647H512.512V635.391H512.256V635.647ZM389.888 635.647V635.391H389.632V635.647H389.888ZM512.768 783.616H512.512V783.872H512.768V783.616ZM635.136 783.616V783.872H635.392V783.616H635.136ZM635.136 635.647H635.392V635.391H635.136V635.647ZM512.768 635.647V635.391H512.512V635.647H512.768ZM635.648 783.616H635.392V783.872H635.648V783.616ZM783.616 783.616V783.872H783.872V783.616H783.616ZM783.616 635.647H783.872V635.391H783.616V635.647ZM635.648 635.647V635.391H635.392V635.647H635.648ZM784.128 783.616H783.872V783.872H784.128V783.616ZM875.776 783.616V783.872H876.032V783.616H875.776ZM875.776 635.647H876.032V635.391H875.776V635.647ZM784.128 635.647V635.391H783.872V635.647H784.128ZM876.287 783.616H876.031V783.872H876.287V783.616ZM1024.26 783.616V783.872H1024.51V783.616H1024.26ZM1024.26 635.647H1024.51V635.391H1024.26V635.647ZM876.287 635.647V635.391H876.031V635.647H876.287ZM0.767715 635.136H0.511715V635.392H0.767715V635.136ZM148.735 635.136V635.392H148.991V635.136H148.735ZM148.735 512.768H148.991V512.512H148.735V512.768ZM0.767715 512.768V512.512H0.511715V512.768H0.767715ZM149.247 635.136H148.991V635.392H149.247V635.136ZM240.896 635.136V635.392H241.152V635.136H240.896ZM240.896 512.768H241.152V512.512H240.896V512.768ZM149.247 512.768V512.512H148.991V512.768H149.247ZM241.407 635.136H241.151V635.392H241.407V635.136ZM389.376 635.136V635.392H389.632V635.136H389.376ZM389.376 512.768H389.632V512.512H389.376V512.768ZM241.407 512.768V512.512H241.151V512.768H241.407ZM389.888 635.136H389.632V635.392H389.888V635.136ZM512.256 635.136V635.392H512.512V635.136H512.256ZM512.256 512.768H512.512V512.512H512.256V512.768ZM389.888 512.768V512.512H389.632V512.768H389.888ZM512.768 635.136H512.512V635.392H512.768V635.136ZM635.136 635.136V635.392H635.392V635.136H635.136ZM635.136 512.768H635.392V512.512H635.136V512.768ZM512.768 512.768V512.512H512.512V512.768H512.768ZM635.648 635.136H635.392V635.392H635.648V635.136ZM783.616 635.136V635.392H783.872V635.136H783.616ZM783.616 512.768H783.872V512.512H783.616V512.768ZM635.648 512.768V512.512H635.392V512.768H635.648ZM784.128 635.136H783.872V635.392H784.128V635.136ZM875.776 635.136V635.392H876.032V635.136H875.776ZM875.776 512.768H876.032V512.512H875.776V512.768ZM784.128 512.768V512.512H783.872V512.768H784.128ZM876.287 635.136H876.031V635.392H876.287V635.136ZM1024.26 635.136V635.392H1024.51V635.136H1024.26ZM1024.26 512.768H1024.51V512.512H1024.26V512.768ZM876.287 512.768V512.512H876.031V512.768H876.287ZM0.767715 512.256H0.511715V512.512H0.767715V512.256ZM148.735 512.256V512.512H148.991V512.256H148.735ZM148.735 389.888H148.991V389.632H148.735V389.888ZM0.767715 389.888V389.632H0.511715V389.888H0.767715ZM149.247 512.256H148.991V512.512H149.247V512.256ZM240.896 512.256V512.512H241.152V512.256H240.896ZM240.896 389.888H241.152V389.632H240.896V389.888ZM149.247 389.888V389.632H148.991V389.888H149.247ZM241.407 512.256H241.151V512.512H241.407V512.256ZM389.376 512.256V512.512H389.632V512.256H389.376ZM389.376 389.888H389.632V389.632H389.376V389.888ZM241.407 389.888V389.632H241.151V389.888H241.407ZM389.888 512.256H389.632V512.512H389.888V512.256ZM512.256 512.256V512.512H512.512V512.256H512.256ZM512.256 389.888H512.512V389.632H512.256V389.888ZM389.888 389.888V389.632H389.632V389.888H389.888ZM512.768 512.256H512.512V512.512H512.768V512.256ZM635.136 512.256V512.512H635.392V512.256H635.136ZM635.136 389.888H635.392V389.632H635.136V389.888ZM512.768 389.888V389.632H512.512V389.888H512.768ZM635.648 512.256H635.392V512.512H635.648V512.256ZM783.616 512.256V512.512H783.872V512.256H783.616ZM783.616 389.888H783.872V389.632H783.616V389.888ZM635.648 389.888V389.632H635.392V389.888H635.648ZM784.128 512.256H783.872V512.512H784.128V512.256ZM875.776 512.256V512.512H876.032V512.256H875.776ZM875.776 389.888H876.032V389.632H875.776V389.888ZM784.128 389.888V389.632H783.872V389.888H784.128ZM876.287 512.256H876.031V512.512H876.287V512.256ZM1024.26 512.256V512.512H1024.51V512.256H1024.26ZM1024.26 389.888H1024.51V389.632H1024.26V389.888ZM876.287 389.888V389.632H876.031V389.888H876.287ZM0.767715 389.376H0.511715V389.632H0.767715V389.376ZM148.735 389.376V389.632H148.991V389.376H148.735ZM148.735 241.407H148.991V241.151H148.735V241.407ZM0.767715 241.407V241.151H0.511715V241.407H0.767715ZM149.247 389.376H148.991V389.632H149.247V389.376ZM240.896 389.376V389.632H241.152V389.376H240.896ZM240.896 241.407H241.152V241.151H240.896V241.407ZM149.247 241.407V241.151H148.991V241.407H149.247ZM241.407 389.376H241.151V389.632H241.407V389.376ZM389.376 389.376V389.632H389.632V389.376H389.376ZM389.376 241.407H389.632V241.151H389.376V241.407ZM241.407 241.407V241.151H241.151V241.407H241.407ZM389.888 389.376H389.632V389.632H389.888V389.376ZM512.256 389.376V389.632H512.512V389.376H512.256ZM512.256 241.407H512.512V241.151H512.256V241.407ZM389.888 241.407V241.151H389.632V241.407H389.888ZM512.768 389.376H512.512V389.632H512.768V389.376ZM635.136 389.376V389.632H635.392V389.376H635.136ZM635.136 241.407H635.392V241.151H635.136V241.407ZM512.768 241.407V241.151H512.512V241.407H512.768ZM635.648 389.376H635.392V389.632H635.648V389.376ZM783.616 389.376V389.632H783.872V389.376H783.616ZM783.616 241.407H783.872V241.151H783.616V241.407ZM635.648 241.407V241.151H635.392V241.407H635.648ZM784.128 389.376H783.872V389.632H784.128V389.376ZM875.776 389.376V389.632H876.032V389.376H875.776ZM875.776 241.407H876.032V241.151H875.776V241.407ZM784.128 241.407V241.151H783.872V241.407H784.128ZM876.287 389.376H876.031V389.632H876.287V389.376ZM1024.26 389.376V389.632H1024.51V389.376H1024.26ZM1024.26 241.407H1024.51V241.151H1024.26V241.407ZM876.287 241.407V241.151H876.031V241.407H876.287ZM0.767715 149.247V148.991H0.511715V149.247H0.767715ZM0.767715 240.896H0.511715V241.152H0.767715V240.896ZM148.735 240.896V241.152H148.991V240.896H148.735ZM148.735 149.247H148.991V148.991H148.735V149.247ZM149.247 149.247V148.991H148.991V149.247H149.247ZM149.247 240.896H148.991V241.152H149.247V240.896ZM240.896 240.896V241.152H241.152V240.896H240.896ZM240.896 149.247H241.152V148.991H240.896V149.247ZM241.407 149.247V148.991H241.151V149.247H241.407ZM241.407 240.896H241.151V241.152H241.407V240.896ZM389.376 240.896V241.152H389.632V240.896H389.376ZM389.376 149.247H389.632V148.991H389.376V149.247ZM389.888 149.247V148.991H389.632V149.247H389.888ZM389.888 240.896H389.632V241.152H389.888V240.896ZM512.256 240.896V241.152H512.512V240.896H512.256ZM512.256 149.247H512.512V148.991H512.256V149.247ZM512.768 149.247V148.991H512.512V149.247H512.768ZM512.768 240.896H512.512V241.152H512.768V240.896ZM635.136 240.896V241.152H635.392V240.896H635.136ZM635.136 149.247H635.392V148.991H635.136V149.247ZM635.648 149.247V148.991H635.392V149.247H635.648ZM635.648 240.896H635.392V241.152H635.648V240.896ZM783.616 240.896V241.152H783.872V240.896H783.616ZM783.616 149.247H783.872V148.991H783.616V149.247ZM784.128 149.247V148.991H783.872V149.247H784.128ZM784.128 240.896H783.872V241.152H784.128V240.896ZM875.776 240.896V241.152H876.032V240.896H875.776ZM875.776 149.247H876.032V148.991H875.776V149.247ZM876.287 149.247V148.991H876.031V149.247H876.287ZM876.287 240.896H876.031V241.152H876.287V240.896ZM1024.26 240.896V241.152H1024.51V240.896H1024.26ZM1024.26 149.247H1024.51V148.991H1024.26V149.247ZM0.767715 148.735H0.511715V148.991H0.767715V148.735ZM148.735 148.735V148.991H148.991V148.735H148.735ZM148.735 0.767578H148.991V0.511578H148.735V0.767578ZM0.767715 0.767578V0.511578H0.511715V0.767578H0.767715ZM149.247 148.735H148.991V148.991H149.247V148.735ZM240.896 148.735V148.991H241.152V148.735H240.896ZM240.896 0.767578H241.152V0.511578H240.896V0.767578ZM149.247 0.767578V0.511578H148.991V0.767578H149.247ZM241.407 148.735H241.151V148.991H241.407V148.735ZM389.376 148.735V148.991H389.632V148.735H389.376ZM389.376 0.767578H389.632V0.511578H389.376V0.767578ZM241.407 0.767578V0.511578H241.151V0.767578H241.407ZM389.888 148.735H389.632V148.991H389.888V148.735ZM512.256 148.735V148.991H512.512V148.735H512.256ZM512.256 0.767578H512.512V0.511578H512.256V0.767578ZM389.888 0.767578V0.511578H389.632V0.767578H389.888ZM512.768 148.735H512.512V148.991H512.768V148.735ZM635.136 148.735V148.991H635.392V148.735H635.136ZM635.136 0.767578H635.392V0.511578H635.136V0.767578ZM512.768 0.767578V0.511578H512.512V0.767578H512.768ZM635.648 148.735H635.392V148.991H635.648V148.735ZM783.616 148.735V148.991H783.872V148.735H783.616ZM783.616 0.767578H783.872V0.511578H783.616V0.767578ZM635.648 0.767578V0.511578H635.392V0.767578H635.648ZM784.128 148.735H783.872V148.991H784.128V148.735ZM875.776 148.735V148.991H876.032V148.735H875.776ZM875.776 0.767578H876.032V0.511578H875.776V0.767578ZM784.128 0.767578V0.511578H783.872V0.767578H784.128ZM876.287 148.735H876.031V148.991H876.287V148.735ZM1024.26 148.735V148.991H1024.51V148.735H1024.26ZM1024.26 0.767578H1024.51V0.511578H1024.26V0.767578ZM876.287 0.767578V0.511578H876.031V0.767578H876.287ZM1024.77 1024.77V1024.51H0.255997V1024.77V1025.02H1024.77V1024.77ZM0.255997 1024.77H0.511997V0.255859H0.255997H-3.30806e-06V1024.77H0.255997ZM0.255997 0.255859V0.511859H1024.77V0.255859V-0.000140637H0.255997V0.255859ZM1024.77 0.255859H1024.51V1024.77H1024.77H1025.02V0.255859H1024.77ZM0.767715 1024.26V1024.51H148.735V1024.26V1024H0.767715V1024.26ZM148.735 1024.26H148.991V876.287H148.735H148.479V1024.26H148.735ZM148.735 876.287V876.031H0.767715V876.287V876.543H148.735V876.287ZM0.767715 876.287H0.511715V1024.26H0.767715H1.02372V876.287H0.767715ZM149.247 1024.26V1024.51H240.896V1024.26V1024H149.247V1024.26ZM240.896 1024.26H241.152V876.287H240.896H240.64V1024.26H240.896ZM240.896 876.287V876.031H149.247V876.287V876.543H240.896V876.287ZM149.247 876.287H148.991V1024.26H149.247H149.503V876.287H149.247ZM241.407 1024.26V1024.51H389.376V1024.26V1024H241.407V1024.26ZM389.376 1024.26H389.632V876.287H389.376H389.12V1024.26H389.376ZM389.376 876.287V876.031H241.407V876.287V876.543H389.376V876.287ZM241.407 876.287H241.151V1024.26H241.407H241.663V876.287H241.407ZM389.888 1024.26V1024.51H512.256V1024.26V1024H389.888V1024.26ZM512.256 1024.26H512.512V876.287H512.256H512V1024.26H512.256ZM512.256 876.287V876.031H389.888V876.287V876.543H512.256V876.287ZM389.888 876.287H389.632V1024.26H389.888H390.144V876.287H389.888ZM512.768 1024.26V1024.51H635.136V1024.26V1024H512.768V1024.26ZM635.136 1024.26H635.392V876.287H635.136H634.88V1024.26H635.136ZM635.136 876.287V876.031H512.768V876.287V876.543H635.136V876.287ZM512.768 876.287H512.512V1024.26H512.768H513.024V876.287H512.768ZM635.648 1024.26V1024.51H783.616V1024.26V1024H635.648V1024.26ZM783.616 1024.26H783.872V876.287H783.616H783.36V1024.26H783.616ZM783.616 876.287V876.031H635.648V876.287V876.543H783.616V876.287ZM635.648 876.287H635.392V1024.26H635.648H635.904V876.287H635.648ZM784.128 1024.26V1024.51H875.776V1024.26V1024H784.128V1024.26ZM875.776 1024.26H876.032V876.287H875.776H875.52V1024.26H875.776ZM875.776 876.287V876.031H784.128V876.287V876.543H875.776V876.287ZM784.128 876.287H783.872V1024.26H784.128H784.384V876.287H784.128ZM876.287 1024.26V1024.51H1024.26V1024.26V1024H876.287V1024.26ZM1024.26 1024.26H1024.51V876.287H1024.26H1024V1024.26H1024.26ZM1024.26 876.287V876.031H876.287V876.287V876.543H1024.26V876.287ZM876.287 876.287H876.031V1024.26H876.287H876.543V876.287H876.287ZM0.767715 875.775V876.031H148.735V875.775V875.519H0.767715V875.775ZM148.735 875.775H148.991V784.128H148.735H148.479V875.775H148.735ZM148.735 784.128V783.872H0.767715V784.128V784.384H148.735V784.128ZM0.767715 784.128H0.511715V875.775H0.767715H1.02372V784.128H0.767715ZM149.247 875.775V876.031H240.896V875.775V875.519H149.247V875.775ZM240.896 875.775H241.152V784.128H240.896H240.64V875.775H240.896ZM240.896 784.128V783.872H149.247V784.128V784.384H240.896V784.128ZM149.247 784.128H148.991V875.775H149.247H149.503V784.128H149.247ZM241.407 875.775V876.031H389.376V875.775V875.519H241.407V875.775ZM389.376 875.775H389.632V784.128H389.376H389.12V875.775H389.376ZM389.376 784.128V783.872H241.407V784.128V784.384H389.376V784.128ZM241.407 784.128H241.151V875.775H241.407H241.663V784.128H241.407ZM389.888 875.775V876.031H512.256V875.775V875.519H389.888V875.775ZM512.256 875.775H512.512V784.128H512.256H512V875.775H512.256ZM512.256 784.128V783.872H389.888V784.128V784.384H512.256V784.128ZM389.888 784.128H389.632V875.775H389.888H390.144V784.128H389.888ZM512.768 875.775V876.031H635.136V875.775V875.519H512.768V875.775ZM635.136 875.775H635.392V784.128H635.136H634.88V875.775H635.136ZM635.136 784.128V783.872H512.768V784.128V784.384H635.136V784.128ZM512.768 784.128H512.512V875.775H512.768H513.024V784.128H512.768ZM635.648 875.775V876.031H783.616V875.775V875.519H635.648V875.775ZM783.616 875.775H783.872V784.128H783.616H783.36V875.775H783.616ZM783.616 784.128V783.872H635.648V784.128V784.384H783.616V784.128ZM635.648 784.128H635.392V875.775H635.648H635.904V784.128H635.648ZM784.128 875.775V876.031H875.776V875.775V875.519H784.128V875.775ZM875.776 875.775H876.032V784.128H875.776H875.52V875.775H875.776ZM875.776 784.128V783.872H784.128V784.128V784.384H875.776V784.128ZM784.128 784.128H783.872V875.775H784.128H784.384V784.128H784.128ZM876.287 875.775V876.031H1024.26V875.775V875.519H876.287V875.775ZM1024.26 875.775H1024.51V784.128H1024.26H1024V875.775H1024.26ZM1024.26 784.128V783.872H876.287V784.128V784.384H1024.26V784.128ZM876.287 784.128H876.031V875.775H876.287H876.543V784.128H876.287ZM0.767715 783.616V783.872H148.735V783.616V783.36H0.767715V783.616ZM148.735 783.616H148.991V635.647H148.735H148.479V783.616H148.735ZM148.735 635.647V635.391H0.767715V635.647V635.903H148.735V635.647ZM0.767715 635.647H0.511715V783.616H0.767715H1.02372V635.647H0.767715ZM149.247 783.616V783.872H240.896V783.616V783.36H149.247V783.616ZM240.896 783.616H241.152V635.647H240.896H240.64V783.616H240.896ZM240.896 635.647V635.391H149.247V635.647V635.903H240.896V635.647ZM149.247 635.647H148.991V783.616H149.247H149.503V635.647H149.247ZM241.407 783.616V783.872H389.376V783.616V783.36H241.407V783.616ZM389.376 783.616H389.632V635.647H389.376H389.12V783.616H389.376ZM389.376 635.647V635.391H241.407V635.647V635.903H389.376V635.647ZM241.407 635.647H241.151V783.616H241.407H241.663V635.647H241.407ZM389.888 783.616V783.872H512.256V783.616V783.36H389.888V783.616ZM512.256 783.616H512.512V635.647H512.256H512V783.616H512.256ZM512.256 635.647V635.391H389.888V635.647V635.903H512.256V635.647ZM389.888 635.647H389.632V783.616H389.888H390.144V635.647H389.888ZM512.768 783.616V783.872H635.136V783.616V783.36H512.768V783.616ZM635.136 783.616H635.392V635.647H635.136H634.88V783.616H635.136ZM635.136 635.647V635.391H512.768V635.647V635.903H635.136V635.647ZM512.768 635.647H512.512V783.616H512.768H513.024V635.647H512.768ZM635.648 783.616V783.872H783.616V783.616V783.36H635.648V783.616ZM783.616 783.616H783.872V635.647H783.616H783.36V783.616H783.616ZM783.616 635.647V635.391H635.648V635.647V635.903H783.616V635.647ZM635.648 635.647H635.392V783.616H635.648H635.904V635.647H635.648ZM784.128 783.616V783.872H875.776V783.616V783.36H784.128V783.616ZM875.776 783.616H876.032V635.647H875.776H875.52V783.616H875.776ZM875.776 635.647V635.391H784.128V635.647V635.903H875.776V635.647ZM784.128 635.647H783.872V783.616H784.128H784.384V635.647H784.128ZM876.287 783.616V783.872H1024.26V783.616V783.36H876.287V783.616ZM1024.26 783.616H1024.51V635.647H1024.26H1024V783.616H1024.26ZM1024.26 635.647V635.391H876.287V635.647V635.903H1024.26V635.647ZM876.287 635.647H876.031V783.616H876.287H876.543V635.647H876.287ZM0.767715 635.136V635.392H148.735V635.136V634.88H0.767715V635.136ZM148.735 635.136H148.991V512.768H148.735H148.479V635.136H148.735ZM148.735 512.768V512.512H0.767715V512.768V513.024H148.735V512.768ZM0.767715 512.768H0.511715V635.136H0.767715H1.02372V512.768H0.767715ZM149.247 635.136V635.392H240.896V635.136V634.88H149.247V635.136ZM240.896 635.136H241.152V512.768H240.896H240.64V635.136H240.896ZM240.896 512.768V512.512H149.247V512.768V513.024H240.896V512.768ZM149.247 512.768H148.991V635.136H149.247H149.503V512.768H149.247ZM241.407 635.136V635.392H389.376V635.136V634.88H241.407V635.136ZM389.376 635.136H389.632V512.768H389.376H389.12V635.136H389.376ZM389.376 512.768V512.512H241.407V512.768V513.024H389.376V512.768ZM241.407 512.768H241.151V635.136H241.407H241.663V512.768H241.407ZM389.888 635.136V635.392H512.256V635.136V634.88H389.888V635.136ZM512.256 635.136H512.512V512.768H512.256H512V635.136H512.256ZM512.256 512.768V512.512H389.888V512.768V513.024H512.256V512.768ZM389.888 512.768H389.632V635.136H389.888H390.144V512.768H389.888ZM512.768 635.136V635.392H635.136V635.136V634.88H512.768V635.136ZM635.136 635.136H635.392V512.768H635.136H634.88V635.136H635.136ZM635.136 512.768V512.512H512.768V512.768V513.024H635.136V512.768ZM512.768 512.768H512.512V635.136H512.768H513.024V512.768H512.768ZM635.648 635.136V635.392H783.616V635.136V634.88H635.648V635.136ZM783.616 635.136H783.872V512.768H783.616H783.36V635.136H783.616ZM783.616 512.768V512.512H635.648V512.768V513.024H783.616V512.768ZM635.648 512.768H635.392V635.136H635.648H635.904V512.768H635.648ZM784.128 635.136V635.392H875.776V635.136V634.88H784.128V635.136ZM875.776 635.136H876.032V512.768H875.776H875.52V635.136H875.776ZM875.776 512.768V512.512H784.128V512.768V513.024H875.776V512.768ZM784.128 512.768H783.872V635.136H784.128H784.384V512.768H784.128ZM876.287 635.136V635.392H1024.26V635.136V634.88H876.287V635.136ZM1024.26 635.136H1024.51V512.768H1024.26H1024V635.136H1024.26ZM1024.26 512.768V512.512H876.287V512.768V513.024H1024.26V512.768ZM876.287 512.768H876.031V635.136H876.287H876.543V512.768H876.287ZM0.767715 512.256V512.512H148.735V512.256V512H0.767715V512.256ZM148.735 512.256H148.991V389.888H148.735H148.479V512.256H148.735ZM148.735 389.888V389.632H0.767715V389.888V390.144H148.735V389.888ZM0.767715 389.888H0.511715V512.256H0.767715H1.02372V389.888H0.767715ZM149.247 512.256V512.512H240.896V512.256V512H149.247V512.256ZM240.896 512.256H241.152V389.888H240.896H240.64V512.256H240.896ZM240.896 389.888V389.632H149.247V389.888V390.144H240.896V389.888ZM149.247 389.888H148.991V512.256H149.247H149.503V389.888H149.247ZM241.407 512.256V512.512H389.376V512.256V512H241.407V512.256ZM389.376 512.256H389.632V389.888H389.376H389.12V512.256H389.376ZM389.376 389.888V389.632H241.407V389.888V390.144H389.376V389.888ZM241.407 389.888H241.151V512.256H241.407H241.663V389.888H241.407ZM389.888 512.256V512.512H512.256V512.256V512H389.888V512.256ZM512.256 512.256H512.512V389.888H512.256H512V512.256H512.256ZM512.256 389.888V389.632H389.888V389.888V390.144H512.256V389.888ZM389.888 389.888H389.632V512.256H389.888H390.144V389.888H389.888ZM512.768 512.256V512.512H635.136V512.256V512H512.768V512.256ZM635.136 512.256H635.392V389.888H635.136H634.88V512.256H635.136ZM635.136 389.888V389.632H512.768V389.888V390.144H635.136V389.888ZM512.768 389.888H512.512V512.256H512.768H513.024V389.888H512.768ZM635.648 512.256V512.512H783.616V512.256V512H635.648V512.256ZM783.616 512.256H783.872V389.888H783.616H783.36V512.256H783.616ZM783.616 389.888V389.632H635.648V389.888V390.144H783.616V389.888ZM635.648 389.888H635.392V512.256H635.648H635.904V389.888H635.648ZM784.128 512.256V512.512H875.776V512.256V512H784.128V512.256ZM875.776 512.256H876.032V389.888H875.776H875.52V512.256H875.776ZM875.776 389.888V389.632H784.128V389.888V390.144H875.776V389.888ZM784.128 389.888H783.872V512.256H784.128H784.384V389.888H784.128ZM876.287 512.256V512.512H1024.26V512.256V512H876.287V512.256ZM1024.26 512.256H1024.51V389.888H1024.26H1024V512.256H1024.26ZM1024.26 389.888V389.632H876.287V389.888V390.144H1024.26V389.888ZM876.287 389.888H876.031V512.256H876.287H876.543V389.888H876.287ZM0.767715 389.376V389.632H148.735V389.376V389.12H0.767715V389.376ZM148.735 389.376H148.991V241.407H148.735H148.479V389.376H148.735ZM148.735 241.407V241.151H0.767715V241.407V241.663H148.735V241.407ZM0.767715 241.407H0.511715V389.376H0.767715H1.02372V241.407H0.767715ZM149.247 389.376V389.632H240.896V389.376V389.12H149.247V389.376ZM240.896 389.376H241.152V241.407H240.896H240.64V389.376H240.896ZM240.896 241.407V241.151H149.247V241.407V241.663H240.896V241.407ZM149.247 241.407H148.991V389.376H149.247H149.503V241.407H149.247ZM241.407 389.376V389.632H389.376V389.376V389.12H241.407V389.376ZM389.376 389.376H389.632V241.407H389.376H389.12V389.376H389.376ZM389.376 241.407V241.151H241.407V241.407V241.663H389.376V241.407ZM241.407 241.407H241.151V389.376H241.407H241.663V241.407H241.407ZM389.888 389.376V389.632H512.256V389.376V389.12H389.888V389.376ZM512.256 389.376H512.512V241.407H512.256H512V389.376H512.256ZM512.256 241.407V241.151H389.888V241.407V241.663H512.256V241.407ZM389.888 241.407H389.632V389.376H389.888H390.144V241.407H389.888ZM512.768 389.376V389.632H635.136V389.376V389.12H512.768V389.376ZM635.136 389.376H635.392V241.407H635.136H634.88V389.376H635.136ZM635.136 241.407V241.151H512.768V241.407V241.663H635.136V241.407ZM512.768 241.407H512.512V389.376H512.768H513.024V241.407H512.768ZM635.648 389.376V389.632H783.616V389.376V389.12H635.648V389.376ZM783.616 389.376H783.872V241.407H783.616H783.36V389.376H783.616ZM783.616 241.407V241.151H635.648V241.407V241.663H783.616V241.407ZM635.648 241.407H635.392V389.376H635.648H635.904V241.407H635.648ZM784.128 389.376V389.632H875.776V389.376V389.12H784.128V389.376ZM875.776 389.376H876.032V241.407H875.776H875.52V389.376H875.776ZM875.776 241.407V241.151H784.128V241.407V241.663H875.776V241.407ZM784.128 241.407H783.872V389.376H784.128H784.384V241.407H784.128ZM876.287 389.376V389.632H1024.26V389.376V389.12H876.287V389.376ZM1024.26 389.376H1024.51V241.407H1024.26H1024V389.376H1024.26ZM1024.26 241.407V241.151H876.287V241.407V241.663H1024.26V241.407ZM876.287 241.407H876.031V389.376H876.287H876.543V241.407H876.287ZM0.767715 149.247H0.511715V240.896H0.767715H1.02372V149.247H0.767715ZM0.767715 240.896V241.152H148.735V240.896V240.64H0.767715V240.896ZM148.735 240.896H148.991V149.247H148.735H148.479V240.896H148.735ZM148.735 149.247V148.991H0.767715V149.247V149.503H148.735V149.247ZM149.247 149.247H148.991V240.896H149.247H149.503V149.247H149.247ZM149.247 240.896V241.152H240.896V240.896V240.64H149.247V240.896ZM240.896 240.896H241.152V149.247H240.896H240.64V240.896H240.896ZM240.896 149.247V148.991H149.247V149.247V149.503H240.896V149.247ZM241.407 149.247H241.151V240.896H241.407H241.663V149.247H241.407ZM241.407 240.896V241.152H389.376V240.896V240.64H241.407V240.896ZM389.376 240.896H389.632V149.247H389.376H389.12V240.896H389.376ZM389.376 149.247V148.991H241.407V149.247V149.503H389.376V149.247ZM389.888 149.247H389.632V240.896H389.888H390.144V149.247H389.888ZM389.888 240.896V241.152H512.256V240.896V240.64H389.888V240.896ZM512.256 240.896H512.512V149.247H512.256H512V240.896H512.256ZM512.256 149.247V148.991H389.888V149.247V149.503H512.256V149.247ZM512.768 149.247H512.512V240.896H512.768H513.024V149.247H512.768ZM512.768 240.896V241.152H635.136V240.896V240.64H512.768V240.896ZM635.136 240.896H635.392V149.247H635.136H634.88V240.896H635.136ZM635.136 149.247V148.991H512.768V149.247V149.503H635.136V149.247ZM635.648 149.247H635.392V240.896H635.648H635.904V149.247H635.648ZM635.648 240.896V241.152H783.616V240.896V240.64H635.648V240.896ZM783.616 240.896H783.872V149.247H783.616H783.36V240.896H783.616ZM783.616 149.247V148.991H635.648V149.247V149.503H783.616V149.247ZM784.128 149.247H783.872V240.896H784.128H784.384V149.247H784.128ZM784.128 240.896V241.152H875.776V240.896V240.64H784.128V240.896ZM875.776 240.896H876.032V149.247H875.776H875.52V240.896H875.776ZM875.776 149.247V148.991H784.128V149.247V149.503H875.776V149.247ZM876.287 149.247H876.031V240.896H876.287H876.543V149.247H876.287ZM876.287 240.896V241.152H1024.26V240.896V240.64H876.287V240.896ZM1024.26 240.896H1024.51V149.247H1024.26H1024V240.896H1024.26ZM1024.26 149.247V148.991H876.287V149.247V149.503H1024.26V149.247ZM0.767715 148.735V148.991H148.735V148.735V148.479H0.767715V148.735ZM148.735 148.735H148.991V0.767578H148.735H148.479V148.735H148.735ZM148.735 0.767578V0.511578H0.767715V0.767578V1.02358H148.735V0.767578ZM0.767715 0.767578H0.511715V148.735H0.767715H1.02372V0.767578H0.767715ZM149.247 148.735V148.991H240.896V148.735V148.479H149.247V148.735ZM240.896 148.735H241.152V0.767578H240.896H240.64V148.735H240.896ZM240.896 0.767578V0.511578H149.247V0.767578V1.02358H240.896V0.767578ZM149.247 0.767578H148.991V148.735H149.247H149.503V0.767578H149.247ZM241.407 148.735V148.991H389.376V148.735V148.479H241.407V148.735ZM389.376 148.735H389.632V0.767578H389.376H389.12V148.735H389.376ZM389.376 0.767578V0.511578H241.407V0.767578V1.02358H389.376V0.767578ZM241.407 0.767578H241.151V148.735H241.407H241.663V0.767578H241.407ZM389.888 148.735V148.991H512.256V148.735V148.479H389.888V148.735ZM512.256 148.735H512.512V0.767578H512.256H512V148.735H512.256ZM512.256 0.767578V0.511578H389.888V0.767578V1.02358H512.256V0.767578ZM389.888 0.767578H389.632V148.735H389.888H390.144V0.767578H389.888ZM512.768 148.735V148.991H635.136V148.735V148.479H512.768V148.735ZM635.136 148.735H635.392V0.767578H635.136H634.88V148.735H635.136ZM635.136 0.767578V0.511578H512.768V0.767578V1.02358H635.136V0.767578ZM512.768 0.767578H512.512V148.735H512.768H513.024V0.767578H512.768ZM635.648 148.735V148.991H783.616V148.735V148.479H635.648V148.735ZM783.616 148.735H783.872V0.767578H783.616H783.36V148.735H783.616ZM783.616 0.767578V0.511578H635.648V0.767578V1.02358H783.616V0.767578ZM635.648 0.767578H635.392V148.735H635.648H635.904V0.767578H635.648ZM784.128 148.735V148.991H875.776V148.735V148.479H784.128V148.735ZM875.776 148.735H876.032V0.767578H875.776H875.52V148.735H875.776ZM875.776 0.767578V0.511578H784.128V0.767578V1.02358H875.776V0.767578ZM784.128 0.767578H783.872V148.735H784.128H784.384V0.767578H784.128ZM876.287 148.735V148.991H1024.26V148.735V148.479H876.287V148.735ZM1024.26 148.735H1024.51V0.767578H1024.26H1024V148.735H1024.26ZM1024.26 0.767578V0.511578H876.287V0.767578V1.02358H1024.26V0.767578ZM876.287 0.767578H876.031V148.735H876.287H876.543V0.767578H876.287Z" fill="black"/>
<path d="M875.776 512.511H876.032H875.776ZM512.511 149.248V148.992V149.248ZM512.511 875.776V876.032V875.776ZM149.248 512.511H148.992H149.248ZM876.288 512.511H876.544H876.288ZM512.511 876.288V876.544V876.288ZM512.511 148.736V148.48V148.736ZM148.736 512.511H148.48H148.736ZM512.512 241.408V241.152V241.408ZM783.616 512.512H783.872H783.616ZM241.408 512.512H241.152H241.408ZM512.512 783.616V783.872V783.616ZM512.512 784.127V784.383V784.127ZM784.128 512.512H784.384H784.128ZM240.896 512.512H240.64H240.896ZM512.512 240.896V240.64V240.896ZM1024.26 512.512H1024.51C1024.51 229.742 795.282 0.511719 512.512 0.511719V0.767719V1.02372C794.999 1.02372 1024 230.025 1024 512.512H1024.26ZM512.512 1024.26V1024.51C795.282 1024.51 1024.51 795.282 1024.51 512.512H1024.26H1024C1024 794.999 794.999 1024 512.512 1024V1024.26ZM0.767856 512.512H0.511856C0.511856 795.282 229.742 1024.51 512.512 1024.51V1024.26V1024C230.025 1024 1.02386 794.999 1.02386 512.512H0.767856ZM512.512 0.767719V0.511719C229.742 0.511719 0.511856 229.742 0.511856 512.512H0.767856H1.02386C1.02386 230.025 230.025 1.02372 512.512 1.02372V0.767719ZM1024.77 512.512H1024.51C1024.51 795.282 795.282 1024.51 512.512 1024.51V1024.77V1025.02C795.565 1025.02 1025.02 795.564 1025.02 512.512H1024.77ZM512.512 0.256V0.512C795.282 0.512 1024.51 229.742 1024.51 512.512H1024.77H1025.02C1025.02 229.459 795.565 0 512.512 0V0.256ZM0.256137 512.512H0.512137C0.512137 229.742 229.742 0.512 512.512 0.512V0.256V0C229.459 0 0.000137329 229.459 0.000137329 512.512H0.256137ZM512.512 1024.77V1024.51C229.742 1024.51 0.512137 795.282 0.512137 512.512H0.256137H0.000137329C0.000137329 795.564 229.459 1025.02 512.512 1025.02V1024.77ZM875.776 512.511H876.032C876.032 311.745 713.278 148.992 512.511 148.992V149.248V149.504C712.995 149.504 875.52 312.028 875.52 512.511H875.776ZM512.511 875.776V876.032C713.278 876.032 876.032 713.278 876.032 512.511H875.776H875.52C875.52 712.995 712.995 875.52 512.511 875.52V875.776ZM149.248 512.511H148.992C148.992 713.278 311.745 876.032 512.511 876.032V875.776V875.52C312.028 875.52 149.504 712.995 149.504 512.511H149.248ZM512.511 149.248V148.992C311.745 148.992 148.992 311.745 148.992 512.511H149.248H149.504C149.504 312.028 312.028 149.504 512.511 149.504V149.248ZM876.288 512.511H876.032C876.032 713.278 713.278 876.032 512.511 876.032V876.288V876.544C713.561 876.544 876.544 713.561 876.544 512.511H876.288ZM512.511 148.736V148.992C713.278 148.992 876.032 311.745 876.032 512.511H876.288H876.544C876.544 311.462 713.561 148.48 512.511 148.48V148.736ZM148.736 512.511H148.992C148.992 311.745 311.745 148.992 512.511 148.992V148.736V148.48C311.463 148.48 148.48 311.462 148.48 512.511H148.736ZM512.511 876.288V876.032C311.745 876.031 148.992 713.278 148.992 512.511H148.736H148.48C148.48 713.561 311.462 876.543 512.511 876.544V876.288ZM512.512 241.408V241.664C662.097 241.664 783.36 362.927 783.36 512.512H783.616H783.872C783.872 362.644 662.38 241.152 512.512 241.152V241.408ZM241.408 512.512H241.664C241.664 362.927 362.927 241.664 512.512 241.664V241.408V241.152C362.644 241.152 241.152 362.644 241.152 512.512H241.408ZM512.512 783.616V783.36C362.927 783.36 241.664 662.097 241.664 512.512H241.408H241.152C241.152 662.38 362.644 783.872 512.512 783.872V783.616ZM783.616 512.512H783.36C783.36 662.097 662.097 783.36 512.512 783.36V783.616V783.872C662.38 783.872 783.872 662.38 783.872 512.512H783.616ZM512.512 784.127V784.383C662.663 784.383 784.383 662.663 784.384 512.512H784.128H783.872C783.871 662.38 662.38 783.871 512.512 783.871V784.127ZM240.896 512.512H240.64C240.64 662.663 362.362 784.383 512.512 784.383V784.127V783.871C362.644 783.871 241.152 662.38 241.152 512.512H240.896ZM512.512 240.896V240.64C362.362 240.64 240.64 362.361 240.64 512.512H240.896H241.152C241.152 362.644 362.644 241.152 512.512 241.152V240.896ZM784.128 512.512H784.384C784.384 362.362 662.663 240.64 512.512 240.64V240.896V241.152C662.38 241.152 783.872 362.644 783.872 512.512H784.128ZM635.392 512.512H635.136C635.136 580.235 580.235 635.136 512.512 635.136V635.392V635.648C580.518 635.648 635.648 580.518 635.648 512.512H635.392ZM512.512 389.632V389.888C580.235 389.888 635.136 444.788 635.136 512.512H635.392H635.648C635.648 444.506 580.518 389.376 512.512 389.376V389.632ZM389.632 512.512H389.888C389.888 444.788 444.789 389.888 512.512 389.888V389.632V389.376C444.506 389.376 389.376 444.506 389.376 512.512H389.632ZM512.512 635.392V635.136C444.789 635.136 389.888 580.235 389.888 512.512H389.632H389.376C389.376 580.518 444.506 635.648 512.512 635.648V635.392Z" fill="black"/>
</g>
</svg>
